<svg xmlns="http://www.w3.org/2000/svg" viewBox="-6078 1075.128 24.591 24.591">
  <defs>
    <style>
      .cls-1 {
        fill: #03cdfd;
      }
    </style>
  </defs>
  <path id="Union_3" data-name="Union 3" class="cls-1" d="M6160.2-901.033a12.317,12.317,0,0,1,12.295-12.3,12.31,12.31,0,0,1,12.3,12.3,12.318,12.318,0,0,1-12.3,12.295A12.316,12.316,0,0,1,6160.2-901.033Zm1.571,0a10.74,10.74,0,0,0,10.724,10.724,10.738,10.738,0,0,0,10.724-10.724,10.729,10.729,0,0,0-10.724-10.724A10.74,10.74,0,0,0,6161.771-901.033Zm4.382,1.155a.778.778,0,0,1-.779-.779.778.778,0,0,1,.779-.779h5.563v-8.734a.778.778,0,0,1,.779-.779.787.787,0,0,1,.793.765v9.527a.778.778,0,0,1-.779.779Z" transform="translate(-12238.2 1988.458)"/>
</svg>
